<?xml version="1.0" standalone="no"?>
<!DOCTYPE svg PUBLIC "-//W3C//DTD SVG 20010904//EN"
 "http://www.w3.org/TR/2001/REC-SVG-20010904/DTD/svg10.dtd">
<svg version="1.0" xmlns="http://www.w3.org/2000/svg"
 width="512.000000pt" height="512.000000pt" viewBox="0 0 512.000000 512.000000"
 preserveAspectRatio="xMidYMid meet">

<g transform="translate(0.000000,512.000000) scale(0.100000,-0.100000)"
fill="#000000" stroke="none">
<path d="M2337 5110 c-613 -59 -1164 -316 -1587 -740 -396 -396 -645 -898
-727 -1465 -24 -167 -24 -525 1 -690 109 -750 501 -1373 1126 -1792 307 -206
669 -341 1065 -399 166 -25 524 -25 690 0 569 83 1059 323 1452 712 406 402
655 899 739 1479 27 181 25 534 -4 720 -87 557 -331 1043 -722 1435 -396 397
-891 642 -1464 726 -123 18 -449 26 -569 14z m-932 -1181 c15 -44 25 -81 24
-83 -2 -1 -30 -15 -62 -30 -75 -36 -148 -109 -186 -188 -49 -99 -61 -188 -61
-449 0 -170 -4 -250 -16 -306 -27 -130 -96 -241 -188 -299 l-43 -27 58 -44
c70 -53 131 -141 160 -232 19 -59 23 -98 29 -361 8 -316 14 -359 66 -461 35
-70 107 -139 179 -174 33 -16 62 -30 63 -31 2 -1 -9 -41 -24 -88 -32 -98 -19
-94 -144 -43 -160 66 -286 178 -350 313 -54 112 -61 164 -69 479 -7 268 -9
294 -30 348 -42 107 -116 164 -230 176 l-56 6 0 110 0 110 55 6 c127 14 201
76 243 204 5 16 13 161 17 320 9 323 16 370 77 494 43 87 139 188 227 240 66
39 216 102 227 95 4 -2 19 -40 34 -85z m2645 3 c90 -49 208 -169 248 -252 62
-128 73 -195 79 -495 5 -290 13 -345 59 -415 40 -60 128 -110 195 -110 57 0
59 -3 59 -120 l0 -107 -58 -6 c-102 -9 -180 -65 -224 -162 -21 -47 -23 -69
-30 -340 -6 -244 -10 -303 -27 -370 -56 -217 -203 -372 -429 -455 l-81 -29
-26 77 c-15 42 -28 82 -31 87 -2 6 22 21 52 34 118 51 212 174 244 321 7 31
16 180 20 345 6 271 8 294 30 350 13 33 33 76 45 95 28 44 112 123 153 144 18
9 32 19 32 21 0 2 -15 12 -32 21 -59 30 -106 74 -147 135 -68 102 -73 128 -81
459 -9 312 -15 358 -65 467 -33 72 -104 145 -181 185 -35 18 -64 37 -64 43 0
5 12 45 26 87 l25 77 72 -25 c40 -14 101 -42 137 -62z m-1385 -197 c229 -41
422 -229 470 -460 8 -38 15 -86 15 -106 0 -28 5 -38 20 -42 16 -4 43 20 131
119 61 68 120 126 131 130 48 15 107 -40 94 -90 -3 -14 -51 -76 -106 -138 -55
-61 -100 -116 -100 -120 0 -5 11 -25 24 -46 49 -75 59 -138 51 -324 l-7 -168
154 0 c135 0 157 -2 170 -17 37 -42 28 -101 -19 -122 -14 -6 -86 -11 -176 -11
l-153 0 -18 -72 c-25 -100 -73 -223 -135 -347 l-53 -104 146 -147 c134 -134
146 -150 146 -183 0 -27 -7 -41 -26 -56 -51 -40 -67 -32 -219 119 l-141 140
-34 -36 c-47 -49 -151 -115 -230 -147 -251 -99 -552 -36 -742 157 l-63 63
-146 -143 c-126 -124 -151 -144 -178 -144 -40 0 -81 39 -81 76 0 22 32 60 161
190 l162 163 -61 138 c-61 140 -96 236 -108 299 l-6 34 -159 0 c-151 0 -159 1
-185 23 -33 28 -37 76 -9 107 17 18 30 20 172 20 l154 0 -7 51 c-4 27 -7 116
-8 197 l-1 147 33 68 33 67 -19 28 c-11 15 -35 41 -52 57 -73 68 -150 166
-150 191 0 34 42 74 79 74 25 0 48 -20 148 -126 l119 -126 42 13 c37 11 42 16
42 43 0 17 7 62 15 101 42 198 191 369 378 435 112 39 187 46 302 25z"/>
<path d="M2419 3567 c-156 -53 -268 -190 -288 -352 l-7 -65 436 0 436 0 -7 65
c-33 269 -311 440 -570 352z"/>
<path d="M1995 2991 c-45 -11 -69 -26 -103 -65 -48 -55 -54 -94 -42 -268 20
-293 64 -446 213 -743 91 -182 287 -305 487 -305 135 0 286 66 387 167 103
105 228 374 275 593 23 112 39 412 25 479 -13 60 -76 123 -139 139 -52 13
-1050 16 -1103 3z m428 -319 l127 -127 128 127 c70 69 137 129 149 133 43 12
92 -30 93 -79 0 -25 -22 -52 -130 -160 l-129 -131 139 -141 c111 -111 140
-146 140 -168 0 -37 -41 -76 -81 -76 -27 0 -51 19 -170 137 l-139 137 -138
-137 c-117 -116 -143 -137 -169 -137 -46 0 -77 30 -77 74 0 34 11 48 137 174
l137 137 -120 120 c-132 132 -152 163 -129 204 18 32 57 53 84 45 11 -3 77
-63 148 -132z"/>
</g>
</svg>
