<svg width="667" height="557" viewBox="0 0 667 557" fill="none" xmlns="http://www.w3.org/2000/svg">
<g clip-path="url(#clip0_1672_1560)">
<rect width="668" height="556" rx="82" fill="#002ED2"/>
<rect width="668" height="556" rx="82" fill="url(#paint0_linear_1672_1560)" fill-opacity="0.56" style="mix-blend-mode:hard-light"/>
<path fill-rule="evenodd" clip-rule="evenodd" d="M333.45 73.8994C281.079 73.8994 238.625 116.354 238.625 168.724V171.149C233.872 172.11 229.339 173.662 225.103 175.723L190.068 138.245C185.463 133.319 177.736 133.059 172.811 137.664C167.885 142.269 167.624 149.995 172.229 154.921L205.888 190.925C197.155 201.594 192.23 215.46 193.121 230.389L194.998 261.828C195.278 266.512 195.692 271.182 196.239 275.831H152.889C146.146 275.831 140.68 281.298 140.68 288.041C140.68 294.784 146.146 300.25 152.889 300.25H200.379C203.948 316.307 209.137 331.994 215.885 347.067L228.911 376.157C229.082 376.538 229.254 376.918 229.429 377.297L180.964 424.882C176.152 429.606 176.081 437.336 180.805 442.148C185.53 446.96 193.26 447.03 198.072 442.306L242.41 398.773C263.41 426.08 296.189 442.695 331.606 442.695C364.079 442.695 394.427 428.716 415.468 405.2L456.58 446.96C461.311 451.766 469.041 451.826 473.846 447.096C478.652 442.365 478.712 434.635 473.982 429.829L429.86 385.011C430.687 383.529 431.483 382.023 432.248 380.495L442.126 360.737C451.733 341.523 458.735 321.182 462.997 300.25H511.034C517.777 300.25 523.244 294.784 523.244 288.041C523.244 281.298 517.777 275.831 511.034 275.831H466.694C467.269 270.081 467.641 264.302 467.807 258.506L468.661 228.621C469.086 213.732 463.768 200.045 454.739 189.648L486.647 153.701C491.123 148.658 490.663 140.941 485.62 136.465C480.577 131.989 472.86 132.448 468.384 137.491L435.079 175.013C432.882 174.023 430.61 173.169 428.274 172.46V168.724C428.274 116.354 385.82 73.8994 333.45 73.8994ZM404.292 169.826H262.492C262.492 160.332 264.326 150.93 267.889 142.158C271.452 133.385 276.675 125.415 283.258 118.701C289.842 111.987 297.658 106.661 306.26 103.028C314.862 99.3942 324.081 97.524 333.392 97.524C342.703 97.524 351.922 99.3942 360.524 103.028C369.126 106.661 376.942 111.987 383.526 118.701C390.109 125.415 395.332 133.385 398.895 142.158C402.458 150.93 404.292 160.332 404.292 169.826ZM411.706 194.435H249.997C231.253 194.435 216.379 210.222 217.497 228.934L219.373 260.373C220.955 286.87 227.325 312.861 238.172 337.088L251.198 366.178C265.39 397.874 296.878 418.276 331.606 418.276C364.977 418.276 395.483 399.422 410.407 369.574L420.285 349.817C434.596 321.196 442.484 289.795 443.398 257.809L444.251 227.923C444.775 209.585 430.052 194.435 411.706 194.435Z" fill="white"/>
<path d="M387.874 229.125C383.106 224.357 375.376 224.357 370.608 229.125L331.932 267.8L293.257 229.125C288.488 224.357 280.758 224.357 275.99 229.125C271.222 233.893 271.222 241.624 275.99 246.392L314.665 285.067L273.072 326.661C268.304 331.429 268.304 339.159 273.072 343.928C277.84 348.696 285.57 348.696 290.338 343.928L331.932 302.334L373.526 343.928C378.294 348.696 386.024 348.696 390.792 343.928C395.561 339.159 395.561 331.429 390.792 326.661L349.199 285.067L387.874 246.392C392.643 241.624 392.643 233.893 387.874 229.125Z" fill="white"/>
<path fill-rule="evenodd" clip-rule="evenodd" d="M147.919 48.2017H94.2744C69.4216 48.2017 49.2744 68.3488 49.2744 93.2017V239.129C49.2744 250.607 44.8884 261.651 37.0137 270.002L30 277.44L36.3277 283.861C44.6239 292.28 49.2744 303.626 49.2744 315.446V461.677C49.2744 486.53 69.4216 506.677 94.2745 506.677H147.919V477.677H94.2745C85.4379 477.677 78.2744 470.514 78.2744 461.677V315.446C78.2744 301.891 74.5554 288.716 67.6776 277.287C74.5604 265.851 78.2744 252.673 78.2744 239.129V93.2017C78.2744 84.3651 85.4379 77.2017 94.2744 77.2017H147.919V48.2017ZM520.08 477.677H572.605C581.442 477.677 588.605 470.514 588.605 461.677V316.193C588.605 302.329 592.495 288.879 599.655 277.291C592.489 265.694 588.605 252.242 588.605 238.389V93.2017C588.605 84.3651 581.442 77.2017 572.605 77.2017H520.08V48.2017H572.605C597.458 48.2017 617.605 68.3488 617.605 93.2017V238.389C617.605 248.544 621.037 258.345 627.26 266.241C628.341 267.613 629.505 268.926 630.75 270.174L638 277.44L631.457 283.715C630.245 284.877 629.105 286.1 628.041 287.377C621.332 295.424 617.605 305.611 617.605 316.193V461.677C617.605 486.53 597.458 506.677 572.605 506.677H520.08V477.677Z" fill="white"/>
</g>
<defs>
<linearGradient id="paint0_linear_1672_1560" x1="6.31106" y1="7.99999" x2="672.885" y2="530.773" gradientUnits="userSpaceOnUse">
<stop stop-color="white" stop-opacity="0.68"/>
<stop offset="0.18" stop-color="#88A2FF" stop-opacity="0"/>
<stop offset="0.745" stop-color="#02081D" stop-opacity="0.75"/>
<stop offset="1"/>
</linearGradient>
<clipPath id="clip0_1672_1560">
<rect width="667" height="557" fill="white"/>
</clipPath>
</defs>
</svg>
